<mxfile host="app.diagrams.net" agent="Mozilla/5.0 (Windows NT 10.0; Win64; x64) AppleWebKit/537.36 (KHTML, like Gecko) Chrome/131.0.0.0 Safari/537.36" version="24.8.6">
  <diagram name="Page-1" id="LUcV5o30cnkAbACjO_y3">
    <mxGraphModel dx="1644" dy="446" grid="1" gridSize="10" guides="1" tooltips="1" connect="1" arrows="1" fold="1" page="1" pageScale="1" pageWidth="850" pageHeight="1100" math="0" shadow="0">
      <root>
        <mxCell id="0" />
        <mxCell id="1" parent="0" />
        <mxCell id="4iQy_jfTZVuuwxp7fqCE-132" value="ORDER-TABLE" style="swimlane;fontStyle=0;childLayout=stackLayout;horizontal=1;startSize=26;horizontalStack=0;resizeParent=1;resizeParentMax=0;resizeLast=0;collapsible=1;marginBottom=0;align=center;fontSize=14;" vertex="1" parent="1">
          <mxGeometry x="330" y="230" width="170" height="86" as="geometry" />
        </mxCell>
        <mxCell id="4iQy_jfTZVuuwxp7fqCE-133" value="order-id" style="text;strokeColor=none;fillColor=none;spacingLeft=4;spacingRight=4;overflow=hidden;rotatable=0;points=[[0,0.5],[1,0.5]];portConstraint=eastwest;fontSize=12;whiteSpace=wrap;html=1;" vertex="1" parent="4iQy_jfTZVuuwxp7fqCE-132">
          <mxGeometry y="26" width="170" height="30" as="geometry" />
        </mxCell>
        <mxCell id="4iQy_jfTZVuuwxp7fqCE-134" value="order-date" style="text;strokeColor=none;fillColor=none;spacingLeft=4;spacingRight=4;overflow=hidden;rotatable=0;points=[[0,0.5],[1,0.5]];portConstraint=eastwest;fontSize=12;whiteSpace=wrap;html=1;" vertex="1" parent="4iQy_jfTZVuuwxp7fqCE-132">
          <mxGeometry y="56" width="170" height="30" as="geometry" />
        </mxCell>
        <mxCell id="4iQy_jfTZVuuwxp7fqCE-155" value="SUPPLIERS-TABLE" style="swimlane;fontStyle=0;childLayout=stackLayout;horizontal=1;startSize=26;horizontalStack=0;resizeParent=1;resizeParentMax=0;resizeLast=0;collapsible=1;marginBottom=0;align=center;fontSize=14;" vertex="1" parent="1">
          <mxGeometry x="580" y="180" width="160" height="116" as="geometry" />
        </mxCell>
        <mxCell id="4iQy_jfTZVuuwxp7fqCE-156" value="Supplier-name" style="text;strokeColor=none;fillColor=none;spacingLeft=4;spacingRight=4;overflow=hidden;rotatable=0;points=[[0,0.5],[1,0.5]];portConstraint=eastwest;fontSize=12;whiteSpace=wrap;html=1;" vertex="1" parent="4iQy_jfTZVuuwxp7fqCE-155">
          <mxGeometry y="26" width="160" height="30" as="geometry" />
        </mxCell>
        <mxCell id="4iQy_jfTZVuuwxp7fqCE-157" value="suppliers-no" style="text;strokeColor=none;fillColor=none;spacingLeft=4;spacingRight=4;overflow=hidden;rotatable=0;points=[[0,0.5],[1,0.5]];portConstraint=eastwest;fontSize=12;whiteSpace=wrap;html=1;" vertex="1" parent="4iQy_jfTZVuuwxp7fqCE-155">
          <mxGeometry y="56" width="160" height="30" as="geometry" />
        </mxCell>
        <mxCell id="4iQy_jfTZVuuwxp7fqCE-158" value="suppliers-address" style="text;strokeColor=none;fillColor=none;spacingLeft=4;spacingRight=4;overflow=hidden;rotatable=0;points=[[0,0.5],[1,0.5]];portConstraint=eastwest;fontSize=12;whiteSpace=wrap;html=1;" vertex="1" parent="4iQy_jfTZVuuwxp7fqCE-155">
          <mxGeometry y="86" width="160" height="30" as="geometry" />
        </mxCell>
        <mxCell id="4iQy_jfTZVuuwxp7fqCE-160" value="" style="edgeStyle=entityRelationEdgeStyle;fontSize=12;html=1;endArrow=ERoneToMany;startArrow=ERoneToMany;rounded=0;entryX=0.008;entryY=0.133;entryDx=0;entryDy=0;entryPerimeter=0;" edge="1" parent="1">
          <mxGeometry width="100" height="100" relative="1" as="geometry">
            <mxPoint x="1778.72" y="281" as="sourcePoint" />
            <mxPoint x="1800" y="439.99" as="targetPoint" />
            <Array as="points">
              <mxPoint x="1788.72" y="240" />
              <mxPoint x="1778.72" y="380" />
              <mxPoint x="1988.72" y="340" />
            </Array>
          </mxGeometry>
        </mxCell>
        <mxCell id="4iQy_jfTZVuuwxp7fqCE-166" value="Text" style="edgeLabel;html=1;align=center;verticalAlign=middle;resizable=0;points=[];" vertex="1" connectable="0" parent="4iQy_jfTZVuuwxp7fqCE-160">
          <mxGeometry x="0.2163" y="3" relative="1" as="geometry">
            <mxPoint as="offset" />
          </mxGeometry>
        </mxCell>
        <mxCell id="4iQy_jfTZVuuwxp7fqCE-161" value="" style="edgeStyle=entityRelationEdgeStyle;fontSize=12;html=1;endArrow=ERoneToMany;startArrow=ERoneToMany;rounded=0;exitX=1.035;exitY=-0.222;exitDx=0;exitDy=0;exitPerimeter=0;" edge="1" parent="1">
          <mxGeometry width="100" height="100" relative="1" as="geometry">
            <mxPoint x="500.00000000000006" y="268.34000000000003" as="sourcePoint" />
            <mxPoint x="580" y="240" as="targetPoint" />
            <Array as="points">
              <mxPoint x="454.05" y="329" />
            </Array>
          </mxGeometry>
        </mxCell>
        <mxCell id="4iQy_jfTZVuuwxp7fqCE-170" value="INGREDIENT-TABLE" style="swimlane;fontStyle=0;childLayout=stackLayout;horizontal=1;startSize=26;horizontalStack=0;resizeParent=1;resizeParentMax=0;resizeLast=0;collapsible=1;marginBottom=0;align=center;fontSize=14;" vertex="1" parent="1">
          <mxGeometry x="470" y="350" width="160" height="86" as="geometry" />
        </mxCell>
        <mxCell id="4iQy_jfTZVuuwxp7fqCE-171" value="pizza-name" style="text;strokeColor=none;fillColor=none;spacingLeft=4;spacingRight=4;overflow=hidden;rotatable=0;points=[[0,0.5],[1,0.5]];portConstraint=eastwest;fontSize=12;whiteSpace=wrap;html=1;" vertex="1" parent="4iQy_jfTZVuuwxp7fqCE-170">
          <mxGeometry y="26" width="160" height="30" as="geometry" />
        </mxCell>
        <mxCell id="4iQy_jfTZVuuwxp7fqCE-172" value="pizza-size" style="text;strokeColor=none;fillColor=none;spacingLeft=4;spacingRight=4;overflow=hidden;rotatable=0;points=[[0,0.5],[1,0.5]];portConstraint=eastwest;fontSize=12;whiteSpace=wrap;html=1;" vertex="1" parent="4iQy_jfTZVuuwxp7fqCE-170">
          <mxGeometry y="56" width="160" height="30" as="geometry" />
        </mxCell>
        <mxCell id="4iQy_jfTZVuuwxp7fqCE-174" value="CUSTOMER-TABLE" style="swimlane;fontStyle=0;childLayout=stackLayout;horizontal=1;startSize=26;horizontalStack=0;resizeParent=1;resizeParentMax=0;resizeLast=0;collapsible=1;marginBottom=0;align=center;fontSize=14;" vertex="1" parent="1">
          <mxGeometry x="20" y="180" width="160" height="116" as="geometry" />
        </mxCell>
        <mxCell id="4iQy_jfTZVuuwxp7fqCE-175" value="first-name" style="text;strokeColor=none;fillColor=none;spacingLeft=4;spacingRight=4;overflow=hidden;rotatable=0;points=[[0,0.5],[1,0.5]];portConstraint=eastwest;fontSize=12;whiteSpace=wrap;html=1;" vertex="1" parent="4iQy_jfTZVuuwxp7fqCE-174">
          <mxGeometry y="26" width="160" height="30" as="geometry" />
        </mxCell>
        <mxCell id="4iQy_jfTZVuuwxp7fqCE-176" value="last-name" style="text;strokeColor=none;fillColor=none;spacingLeft=4;spacingRight=4;overflow=hidden;rotatable=0;points=[[0,0.5],[1,0.5]];portConstraint=eastwest;fontSize=12;whiteSpace=wrap;html=1;" vertex="1" parent="4iQy_jfTZVuuwxp7fqCE-174">
          <mxGeometry y="56" width="160" height="30" as="geometry" />
        </mxCell>
        <mxCell id="4iQy_jfTZVuuwxp7fqCE-177" value="phone-no" style="text;strokeColor=none;fillColor=none;spacingLeft=4;spacingRight=4;overflow=hidden;rotatable=0;points=[[0,0.5],[1,0.5]];portConstraint=eastwest;fontSize=12;whiteSpace=wrap;html=1;" vertex="1" parent="4iQy_jfTZVuuwxp7fqCE-174">
          <mxGeometry y="86" width="160" height="30" as="geometry" />
        </mxCell>
        <mxCell id="4iQy_jfTZVuuwxp7fqCE-181" value="" style="edgeStyle=entityRelationEdgeStyle;fontSize=12;html=1;endArrow=ERoneToMany;startArrow=ERmandOne;rounded=0;exitX=1;exitY=0.25;exitDx=0;exitDy=0;entryX=0.642;entryY=0.911;entryDx=0;entryDy=0;entryPerimeter=0;" edge="1" parent="4iQy_jfTZVuuwxp7fqCE-174">
          <mxGeometry width="100" height="100" relative="1" as="geometry">
            <mxPoint x="47.28" y="228.17000000000002" as="sourcePoint" />
            <mxPoint x="2.842170943040401e-14" y="100.00000000000006" as="targetPoint" />
            <Array as="points">
              <mxPoint x="207.28" y="166.67000000000002" />
              <mxPoint x="107.28" y="106.67000000000002" />
            </Array>
          </mxGeometry>
        </mxCell>
        <mxCell id="4iQy_jfTZVuuwxp7fqCE-178" value="" style="edgeStyle=entityRelationEdgeStyle;fontSize=12;html=1;endArrow=ERoneToMany;startArrow=ERmandOne;rounded=0;exitX=1.017;exitY=-0.2;exitDx=0;exitDy=0;exitPerimeter=0;" edge="1" parent="1" source="4iQy_jfTZVuuwxp7fqCE-176">
          <mxGeometry width="100" height="100" relative="1" as="geometry">
            <mxPoint x="350" y="400" as="sourcePoint" />
            <mxPoint x="330" y="280" as="targetPoint" />
            <Array as="points">
              <mxPoint x="340" y="350" />
            </Array>
          </mxGeometry>
        </mxCell>
        <mxCell id="4iQy_jfTZVuuwxp7fqCE-179" value="" style="edgeStyle=entityRelationEdgeStyle;fontSize=12;html=1;endArrow=ERoneToMany;startArrow=ERmandOne;rounded=0;exitX=1;exitY=0.5;exitDx=0;exitDy=0;entryX=-0.008;entryY=0.2;entryDx=0;entryDy=0;entryPerimeter=0;" edge="1" parent="1" source="4iQy_jfTZVuuwxp7fqCE-184" target="4iQy_jfTZVuuwxp7fqCE-171">
          <mxGeometry width="100" height="100" relative="1" as="geometry">
            <mxPoint x="398.0799999999999" y="402.66999999999996" as="sourcePoint" />
            <mxPoint x="450" y="300" as="targetPoint" />
          </mxGeometry>
        </mxCell>
        <mxCell id="4iQy_jfTZVuuwxp7fqCE-180" value="" style="edgeStyle=entityRelationEdgeStyle;fontSize=12;html=1;endArrow=ERoneToMany;startArrow=ERmandOne;rounded=0;exitX=1;exitY=0.5;exitDx=0;exitDy=0;" edge="1" parent="1" source="4iQy_jfTZVuuwxp7fqCE-183">
          <mxGeometry width="100" height="100" relative="1" as="geometry">
            <mxPoint x="400" y="429" as="sourcePoint" />
            <mxPoint x="330" y="300" as="targetPoint" />
            <Array as="points">
              <mxPoint x="480" y="359" />
              <mxPoint x="480" y="359" />
              <mxPoint x="480" y="369" />
              <mxPoint x="490" y="369" />
            </Array>
          </mxGeometry>
        </mxCell>
        <mxCell id="4iQy_jfTZVuuwxp7fqCE-182" value="PIZZA-TABLE" style="swimlane;fontStyle=0;childLayout=stackLayout;horizontal=1;startSize=26;horizontalStack=0;resizeParent=1;resizeParentMax=0;resizeLast=0;collapsible=1;marginBottom=0;align=center;fontSize=14;" vertex="1" parent="1">
          <mxGeometry x="-90" y="390" width="160" height="86" as="geometry" />
        </mxCell>
        <mxCell id="4iQy_jfTZVuuwxp7fqCE-184" value="pizza-type" style="text;strokeColor=none;fillColor=none;spacingLeft=4;spacingRight=4;overflow=hidden;rotatable=0;points=[[0,0.5],[1,0.5]];portConstraint=eastwest;fontSize=12;whiteSpace=wrap;html=1;" vertex="1" parent="4iQy_jfTZVuuwxp7fqCE-182">
          <mxGeometry y="26" width="160" height="30" as="geometry" />
        </mxCell>
        <mxCell id="4iQy_jfTZVuuwxp7fqCE-183" value="pizza-size" style="text;strokeColor=none;fillColor=none;spacingLeft=4;spacingRight=4;overflow=hidden;rotatable=0;points=[[0,0.5],[1,0.5]];portConstraint=eastwest;fontSize=12;whiteSpace=wrap;html=1;" vertex="1" parent="4iQy_jfTZVuuwxp7fqCE-182">
          <mxGeometry y="56" width="160" height="30" as="geometry" />
        </mxCell>
      </root>
    </mxGraphModel>
  </diagram>
</mxfile>
